<svg width="512" height="512" viewBox="0 0 512 512" fill="none" xmlns="http://www.w3.org/2000/svg">
  <rect width="512" height="512" rx="128" fill="#0F172A"/>
  <!-- Círculo de destaque -->
  <circle cx="256" cy="256" r="180" fill="#1E293B"/>
  <!-- Bíblia Estilizada -->
  <path d="M160 340C160 340 200 320 256 320C312 320 352 340 352 340V160C352 160 312 140 256 140C200 140 160 160 160 160V340Z" fill="white"/>
  <path d="M256 140V320" stroke="#E2E8F0" stroke-width="4"/>
  <!-- Detalhes em Dourado (Raios/Brilho) -->
  <path d="M256 100V120M380 180L360 190M380 332L360 322M132 180L152 190M132 332L152 322" stroke="#F59E0B" stroke-width="12" stroke-linecap="round"/>
  <!-- Linhas de texto simbólicas -->
  <path d="M185 200H230M185 230H230M185 260H215M282 200H327M282 230H327M282 260H312" stroke="#CBD5E1" stroke-width="6" stroke-linecap="round"/>
</svg>