<svg width="512" height="512" viewBox="0 0 512 512" fill="none" xmlns="http://www.w3.org/2000/svg">
  <rect width="512" height="512" rx="128" fill="#0F172A"/>
  <!-- Páginas da Bíblia -->
  <path d="M256 380C200 380 140 410 100 430V130C140 110 200 80 256 80C312 80 372 110 412 130V430C372 410 312 380 256 380Z" fill="white"/>
  <!-- Divisória central -->
  <path d="M256 80V380" stroke="#CBD5E1" stroke-width="8" stroke-linecap="round"/>
  
  <!-- Linhas de texto na página esquerda -->
  <path d="M130 180H210M130 220H210M130 260H210M130 300H170" stroke="#E2E8F0" stroke-width="10" stroke-linecap="round"/>
  
  <!-- Linhas de texto na página direita -->
  <path d="M300 180H380M300 220H380M300 260H380M300 300H340" stroke="#E2E8F0" stroke-width="10" stroke-linecap="round"/>
</svg>